<svg width="117" height="18" viewBox="0 0 117 18" fill="none" xmlns="http://www.w3.org/2000/svg">
<path opacity="0.8" d="M75 18C70.0297 18 66 13.9703 66 9C66 4.02975 70.0297 0 75 0C79.9703 0 84 4.02975 84 9C84 13.9703 79.9703 18 75 18ZM79.5557 7.99988H74.4448C74.327 7.99988 74.2139 8.04669 74.1306 8.13003C74.0473 8.21337 74.0004 8.32639 74.0004 8.44425L73.9999 9.55575C73.9999 9.801 74.1984 10.0001 74.4443 10.0001H77.556C77.6739 10.0001 77.7869 10.0469 77.8702 10.1303C77.9536 10.2136 78.0004 10.3266 78.0004 10.4445V10.6667C78.0004 10.8418 77.9659 11.0151 77.8989 11.1769C77.8319 11.3386 77.7337 11.4856 77.6099 11.6093C77.4861 11.7331 77.3392 11.8313 77.1774 11.8983C77.0157 11.9653 76.8423 11.9998 76.6673 11.9998H72.4446C72.3267 11.9998 72.2137 11.953 72.1303 11.8697C72.047 11.7863 72.0002 11.6733 72.0002 11.5554V7.33331C72.0002 6.97975 72.1406 6.64066 72.3907 6.39065C72.6407 6.14064 72.9797 6.00019 73.3333 6.00019H79.5546C79.6724 6.00019 79.7854 5.95337 79.8688 5.87003C79.9521 5.7867 79.9989 5.67367 79.9989 5.55581L80.0001 4.44487C80.0001 4.32697 79.9533 4.21388 79.8699 4.13046C79.7866 4.04703 79.6736 4.00009 79.5557 3.99994H73.3333C72.4493 3.99994 71.6016 4.35105 70.9765 4.97606C70.3513 5.60107 70.0001 6.44878 69.9999 7.33275V13.5546C69.9999 13.7998 70.1991 13.9989 70.4443 13.9989H76.9997C77.7953 13.9989 78.5583 13.6829 79.1209 13.1203C79.6834 12.5577 79.9995 11.7947 79.9995 10.9991V8.44369C79.9995 8.32583 79.9527 8.2128 79.8693 8.12947C79.786 8.04613 79.673 7.99931 79.5551 7.99931L79.5557 7.99988Z" fill="#333333"/>
<path d="M108 18C103.03 18 99 13.9703 99 9C99 4.02975 103.03 0 108 0C112.97 0 117 4.02975 117 9C117 13.9703 112.97 18 108 18ZM112.556 7.99988H107.445C107.327 7.99988 107.214 8.04669 107.131 8.13003C107.047 8.21337 107 8.32639 107 8.44425L107 9.55575C107 9.801 107.198 10.0001 107.444 10.0001H110.556C110.674 10.0001 110.787 10.0469 110.87 10.1303C110.954 10.2136 111 10.3266 111 10.4445V10.6667C111 10.8418 110.966 11.0151 110.899 11.1769C110.832 11.3386 110.734 11.4856 110.61 11.6093C110.486 11.7331 110.339 11.8313 110.177 11.8983C110.016 11.9653 109.842 11.9998 109.667 11.9998H105.445C105.327 11.9998 105.214 11.953 105.13 11.8697C105.047 11.7863 105 11.6733 105 11.5554V7.33331C105 6.97975 105.141 6.64066 105.391 6.39065C105.641 6.14064 105.98 6.00019 106.333 6.00019H112.555C112.672 6.00019 112.785 5.95337 112.869 5.87003C112.952 5.7867 112.999 5.67367 112.999 5.55581L113 4.44487C113 4.32697 112.953 4.21388 112.87 4.13046C112.787 4.04703 112.674 4.00009 112.556 3.99994H106.333C105.449 3.99994 104.602 4.35105 103.976 4.97606C103.351 5.60107 103 6.44878 103 7.33275V13.5546C103 13.7998 103.199 13.9989 103.444 13.9989H110C110.795 13.9989 111.558 13.6829 112.121 13.1203C112.683 12.5577 113 11.7947 113 10.9991V8.44369C113 8.32583 112.953 8.2128 112.869 8.12947C112.786 8.04613 112.673 7.99931 112.555 7.99931L112.556 7.99988Z" fill="black"/>
<path opacity="0.8" d="M18 9.22758C18 11.2412 17.4234 13.0425 16.2791 14.6501C15.1348 16.257 13.6575 17.3656 11.8466 17.9839C11.6396 18.0215 11.4776 17.9931 11.3876 17.9008C11.3393 17.8552 11.3013 17.7993 11.2763 17.737C11.2513 17.6747 11.2399 17.6076 11.2429 17.5403V15.0093C11.2429 14.2342 11.0359 13.6614 10.6309 13.3016C11.0347 13.2607 11.435 13.1893 11.8286 13.088C12.2138 12.9823 12.5835 12.8242 12.9279 12.6181C13.3065 12.3959 13.6215 12.1369 13.8741 11.8232C14.1261 11.5094 14.3331 11.0836 14.4951 10.5577C14.6578 10.031 14.7388 9.43124 14.7388 8.74709C14.7388 7.77753 14.4328 6.95562 13.8105 6.27212C14.0991 5.54182 14.0721 4.72913 13.7205 3.82417C13.5045 3.74969 13.1895 3.79649 12.7749 3.95336C12.3602 4.11023 12.0002 4.28621 11.6936 4.47999L11.2519 4.76604C10.5223 4.55381 9.77464 4.45231 9 4.45231C8.22536 4.45231 7.47771 4.55381 6.74807 4.76604C6.58636 4.65285 6.42105 4.54513 6.25243 4.44308C6.04479 4.31389 5.72079 4.15702 5.27014 3.98104C4.82914 3.79649 4.4865 3.74969 4.26086 3.81494C3.91886 4.71991 3.89186 5.53325 4.17986 6.26289C3.56721 6.95562 3.25221 7.77753 3.25221 8.74709C3.25221 9.43124 3.33321 10.031 3.49586 10.5484C3.65721 11.0658 3.86486 11.491 4.1085 11.8139C4.3605 12.1369 4.6755 12.4052 5.05414 12.6181C5.43279 12.8303 5.80179 12.9872 6.15343 13.088C6.54717 13.1894 6.94769 13.2608 7.35171 13.3016C7.03607 13.587 6.84707 14.0029 6.77507 14.5387C6.60671 14.6223 6.42776 14.6813 6.24343 14.714C6.02339 14.7538 5.8002 14.7723 5.57679 14.7694C5.31514 14.7694 5.06314 14.6864 4.8105 14.511C4.5585 14.3357 4.3425 14.0859 4.1625 13.7629C4.01955 13.5141 3.82593 13.2999 3.59486 13.1348C3.36921 12.9687 3.17121 12.8758 3.01821 12.8481L2.78421 12.8112C2.62157 12.8112 2.50457 12.8303 2.44157 12.8665C2.37857 12.9035 2.36057 12.9496 2.38757 13.005C2.41457 13.0603 2.45057 13.1163 2.49557 13.1717C2.54057 13.2271 2.59457 13.2732 2.64857 13.3194L2.72957 13.3747C2.90121 13.4578 3.07221 13.6061 3.24321 13.8275C3.41486 14.049 3.53186 14.2527 3.61286 14.4372L3.72986 14.714C3.82886 15.0192 3.99986 15.2683 4.2435 15.4529C4.4865 15.6381 4.7475 15.7581 5.02714 15.8134C5.30614 15.8688 5.57679 15.8965 5.83779 15.8965C6.09879 15.8965 6.31543 15.8873 6.48643 15.8503L6.75707 15.8042C6.75707 16.1087 6.75707 16.4693 6.76543 16.8759C6.76543 17.2826 6.77507 17.5041 6.77507 17.5225C6.77656 17.5904 6.76358 17.6577 6.73704 17.7199C6.71051 17.782 6.67105 17.8375 6.62143 17.8824C6.52243 17.9747 6.36043 18.0023 6.15343 17.9654C4.3425 17.3465 2.86521 16.2386 1.72093 14.631C0.567643 13.0425 0 11.2319 0 9.22758C0 7.55607 0.405643 6.01309 1.20729 4.59995C2.00893 3.18681 3.09921 2.06896 4.4865 1.23781C5.86479 0.4159 7.36907 0 9 0C10.6309 0 12.1352 0.4159 13.5135 1.23781C14.8918 2.05973 15.9821 3.17758 16.7927 4.59995C17.5944 6.00386 18 7.55607 18 9.22758Z" fill="#333333"/>
<path d="M51 9.22758C51 11.2412 50.4234 13.0425 49.2791 14.6501C48.1348 16.257 46.6575 17.3656 44.8466 17.9839C44.6396 18.0215 44.4776 17.9931 44.3876 17.9008C44.3393 17.8552 44.3013 17.7993 44.2763 17.737C44.2513 17.6747 44.2399 17.6076 44.2429 17.5403V15.0093C44.2429 14.2342 44.0359 13.6614 43.6309 13.3016C44.0347 13.2607 44.435 13.1893 44.8286 13.088C45.2138 12.9823 45.5835 12.8242 45.9279 12.6181C46.3065 12.3959 46.6215 12.1369 46.8741 11.8232C47.1261 11.5094 47.3331 11.0836 47.4951 10.5577C47.6578 10.031 47.7388 9.43124 47.7388 8.74709C47.7388 7.77753 47.4328 6.95562 46.8105 6.27212C47.0991 5.54182 47.0721 4.72913 46.7205 3.82417C46.5045 3.74969 46.1895 3.79649 45.7749 3.95336C45.3602 4.11023 45.0002 4.28621 44.6936 4.47999L44.2519 4.76604C43.5223 4.55381 42.7746 4.45231 42 4.45231C41.2254 4.45231 40.4777 4.55381 39.7481 4.76604C39.5864 4.65285 39.4211 4.54513 39.2524 4.44308C39.0448 4.31389 38.7208 4.15702 38.2701 3.98104C37.8291 3.79649 37.4865 3.74969 37.2609 3.81494C36.9189 4.71991 36.8919 5.53325 37.1799 6.26289C36.5672 6.95562 36.2522 7.77753 36.2522 8.74709C36.2522 9.43124 36.3332 10.031 36.4959 10.5484C36.6572 11.0658 36.8649 11.491 37.1085 11.8139C37.3605 12.1369 37.6755 12.4052 38.0541 12.6181C38.4328 12.8303 38.8018 12.9872 39.1534 13.088C39.5472 13.1894 39.9477 13.2608 40.3517 13.3016C40.0361 13.587 39.8471 14.0029 39.7751 14.5387C39.6067 14.6223 39.4278 14.6813 39.2434 14.714C39.0234 14.7538 38.8002 14.7723 38.5768 14.7694C38.3151 14.7694 38.0631 14.6864 37.8105 14.511C37.5585 14.3357 37.3425 14.0859 37.1625 13.7629C37.0195 13.5141 36.8259 13.2999 36.5949 13.1348C36.3692 12.9687 36.1712 12.8758 36.0182 12.8481L35.7842 12.8112C35.6216 12.8112 35.5046 12.8303 35.4416 12.8665C35.3786 12.9035 35.3606 12.9496 35.3876 13.005C35.4146 13.0603 35.4506 13.1163 35.4956 13.1717C35.5406 13.2271 35.5946 13.2732 35.6486 13.3194L35.7296 13.3747C35.9012 13.4578 36.0722 13.6061 36.2432 13.8275C36.4149 14.049 36.5319 14.2527 36.6129 14.4372L36.7299 14.714C36.8289 15.0192 36.9999 15.2683 37.2435 15.4529C37.4865 15.6381 37.7475 15.7581 38.0271 15.8134C38.3061 15.8688 38.5768 15.8965 38.8378 15.8965C39.0988 15.8965 39.3154 15.8873 39.4864 15.8503L39.7571 15.8042C39.7571 16.1087 39.7571 16.4693 39.7654 16.8759C39.7654 17.2826 39.7751 17.5041 39.7751 17.5225C39.7766 17.5904 39.7636 17.6577 39.737 17.7199C39.7105 17.782 39.671 17.8375 39.6214 17.8824C39.5224 17.9747 39.3604 18.0023 39.1534 17.9654C37.3425 17.3465 35.8652 16.2386 34.7209 14.631C33.5676 13.0425 33 11.2319 33 9.22758C33 7.55607 33.4056 6.01309 34.2073 4.59995C35.0089 3.18681 36.0992 2.06896 37.4865 1.23781C38.8648 0.4159 40.3691 0 42 0C43.6309 0 45.1352 0.4159 46.5135 1.23781C47.8918 2.05973 48.9821 3.17758 49.7927 4.59995C50.5944 6.00386 51 7.55607 51 9.22758Z" fill="black"/>
</svg>
