<svg width="30" height="30" viewBox="0 0 30 30" fill="none" xmlns="http://www.w3.org/2000/svg">
<circle cx="15" cy="15" r="14.5" stroke="white"/>
<path d="M9 15.5C8.72386 15.5 8.5 15.7239 8.5 16C8.5 16.2761 8.72386 16.5 9 16.5V15.5ZM20 16V16.5C20.2022 16.5 20.3845 16.3782 20.4619 16.1913C20.5393 16.0045 20.4966 15.7894 20.3536 15.6464L20 16ZM16.3536 11.6464C16.1583 11.4512 15.8417 11.4512 15.6464 11.6464C15.4512 11.8417 15.4512 12.1583 15.6464 12.3536L16.3536 11.6464ZM9 16.5H20V15.5H9V16.5ZM20.3536 15.6464L16.3536 11.6464L15.6464 12.3536L19.6464 16.3536L20.3536 15.6464Z" fill="white"/>
</svg>
