<svg width="12" height="135" viewBox="0 0 12 135" fill="none" xmlns="http://www.w3.org/2000/svg">
<g opacity="0.5">
<path d="M10.6016 7.08521C10.6016 7.05239 10.6004 7.01841 10.5969 6.98442V2.76216H10.5922V2.75161C10.5922 2.51958 10.5102 2.17153 10.1223 1.82817C9.87383 1.60786 9.52812 1.4145 9.0957 1.25278C8.26133 0.941064 7.16094 0.768799 5.99727 0.768799C4.83359 0.768799 3.7332 0.941064 2.89883 1.25278C2.46758 1.4145 2.12188 1.60786 1.87227 1.82817C1.4832 2.17153 1.40234 2.51958 1.40234 2.75161C1.40234 2.7856 1.40352 2.81841 1.40703 2.85239V4.86567C1.40586 4.88208 1.40586 4.89849 1.40586 4.91489C1.40586 4.9313 1.40586 4.94888 1.40703 4.96411V9.25786C1.4082 9.48989 1.49141 9.8356 1.87695 10.1766C2.12539 10.3969 2.47109 10.5903 2.90352 10.752C3.73789 11.0637 4.83828 11.236 6.00195 11.236C7.16563 11.236 8.26602 11.0637 9.10039 10.752C9.53164 10.5903 9.87734 10.3969 10.127 10.1766C10.5125 9.8356 10.5957 9.48989 10.5969 9.25786V7.18599C10.6004 7.152 10.6016 7.11802 10.6016 7.08521ZM2.25078 3.94692C2.41484 4.04419 2.60938 4.13911 2.84023 4.22817C3.68164 4.55395 4.80195 4.73442 5.99727 4.73442C7.19258 4.73442 8.31523 4.55396 9.15664 4.227C9.38047 4.14028 9.57969 4.04419 9.75312 3.93989V4.91489C9.75312 5.08481 9.47422 5.36489 8.85195 5.6063C8.11484 5.89458 7.07422 6.05864 5.99727 6.05864C4.92148 6.05864 3.88203 5.89458 3.14727 5.60747C2.55312 5.37544 2.27188 5.10591 2.25195 4.93599V3.94692H2.25078ZM2.43125 2.45981C2.6 2.31099 2.86367 2.16685 3.19414 2.04263C3.93594 1.76489 4.93203 1.61255 5.99727 1.61255C7.0625 1.61255 8.05859 1.76489 8.80039 2.04263C9.13086 2.16567 9.39453 2.30981 9.56328 2.45981C9.63125 2.52075 9.74609 2.63794 9.74844 2.7481V2.75396C9.74609 2.9227 9.46719 3.20044 8.85195 3.4395C8.11484 3.72661 7.07422 3.89067 5.99727 3.89067C4.92031 3.89067 3.88086 3.72661 3.14492 3.44185C2.53906 3.20747 2.28711 2.95083 2.25078 2.7938V2.76216H2.24609V2.75161C2.24609 2.64146 2.36211 2.52192 2.43125 2.45981ZM2.25078 6.11021C2.42305 6.21216 2.61992 6.30708 2.84023 6.3938C3.68164 6.72192 4.80313 6.90239 5.99727 6.90239C7.19258 6.90239 8.31406 6.72192 9.15781 6.3938C9.38047 6.30708 9.57969 6.21099 9.75312 6.10786V7.12622C9.7168 7.28325 9.4625 7.53989 8.85312 7.77544C8.11484 8.06021 7.07422 8.22427 5.99727 8.22427C4.92383 8.22427 3.88672 8.06021 3.15312 7.77544C2.53086 7.53403 2.25195 7.25278 2.25195 7.08169V6.11021H2.25078ZM9.56797 9.5438C9.39922 9.69263 9.13555 9.83677 8.80508 9.96099C8.06328 10.2387 7.06719 10.3911 6.00195 10.3911C4.93672 10.3911 3.94062 10.2387 3.19883 9.96099C2.86836 9.83794 2.60469 9.6938 2.43594 9.5438C2.3668 9.48286 2.25078 9.36333 2.25078 9.252V8.27583C2.42422 8.37896 2.62344 8.47505 2.84609 8.56177C3.68633 8.88872 4.80547 9.06802 5.99609 9.06802C7.19023 9.06802 8.31289 8.88872 9.15664 8.56294C9.38984 8.47271 9.58672 8.37661 9.75312 8.27935V9.25317C9.75312 9.36333 9.63711 9.48286 9.56797 9.5438Z" fill="black"/>
<path d="M8.56641 4.97817C8.56641 5.1801 8.73011 5.3438 8.93204 5.3438C9.13396 5.3438 9.29767 5.1801 9.29767 4.97817C9.29767 4.77625 9.13396 4.61255 8.93204 4.61255C8.73011 4.61255 8.56641 4.77625 8.56641 4.97817ZM8.57109 7.10747C8.57109 7.30939 8.7348 7.47309 8.93672 7.47309C9.13865 7.47309 9.30235 7.30939 9.30235 7.10747C9.30235 6.90554 9.13865 6.74184 8.93672 6.74184C8.7348 6.74184 8.57109 6.90554 8.57109 7.10747ZM8.57109 9.30356C8.57109 9.50548 8.7348 9.66918 8.93672 9.66918C9.13865 9.66918 9.30235 9.50548 9.30235 9.30356C9.30235 9.10163 9.13865 8.93793 8.93672 8.93793C8.7348 8.93793 8.57109 9.10163 8.57109 9.30356Z" fill="#9E9E9E"/>
</g>
<path d="M10.6016 130.085C10.6016 130.052 10.6004 130.018 10.5969 129.984V125.762H10.5922V125.752C10.5922 125.52 10.5102 125.172 10.1223 124.828C9.87383 124.608 9.52812 124.415 9.0957 124.253C8.26133 123.941 7.16094 123.769 5.99727 123.769C4.83359 123.769 3.7332 123.941 2.89883 124.253C2.46758 124.415 2.12188 124.608 1.87227 124.828C1.4832 125.172 1.40234 125.52 1.40234 125.752C1.40234 125.786 1.40352 125.818 1.40703 125.852V127.866C1.40586 127.882 1.40586 127.898 1.40586 127.915C1.40586 127.931 1.40586 127.949 1.40703 127.964V132.258C1.4082 132.49 1.49141 132.836 1.87695 133.177C2.12539 133.397 2.47109 133.59 2.90352 133.752C3.73789 134.064 4.83828 134.236 6.00195 134.236C7.16563 134.236 8.26602 134.064 9.10039 133.752C9.53164 133.59 9.87734 133.397 10.127 133.177C10.5125 132.836 10.5957 132.49 10.5969 132.258V130.186C10.6004 130.152 10.6016 130.118 10.6016 130.085ZM2.25078 126.947C2.41484 127.044 2.60938 127.139 2.84023 127.228C3.68164 127.554 4.80195 127.734 5.99727 127.734C7.19258 127.734 8.31523 127.554 9.15664 127.227C9.38047 127.14 9.57969 127.044 9.75312 126.94V127.915C9.75312 128.085 9.47422 128.365 8.85195 128.606C8.11484 128.895 7.07422 129.059 5.99727 129.059C4.92148 129.059 3.88203 128.895 3.14727 128.607C2.55312 128.375 2.27188 128.106 2.25195 127.936V126.947H2.25078ZM2.43125 125.46C2.6 125.311 2.86367 125.167 3.19414 125.043C3.93594 124.765 4.93203 124.613 5.99727 124.613C7.0625 124.613 8.05859 124.765 8.80039 125.043C9.13086 125.166 9.39453 125.31 9.56328 125.46C9.63125 125.521 9.74609 125.638 9.74844 125.748V125.754C9.74609 125.923 9.46719 126.2 8.85195 126.44C8.11484 126.727 7.07422 126.891 5.99727 126.891C4.92031 126.891 3.88086 126.727 3.14492 126.442C2.53906 126.207 2.28711 125.951 2.25078 125.794V125.762H2.24609V125.752C2.24609 125.641 2.36211 125.522 2.43125 125.46ZM2.25078 129.11C2.42305 129.212 2.61992 129.307 2.84023 129.394C3.68164 129.722 4.80313 129.902 5.99727 129.902C7.19258 129.902 8.31406 129.722 9.15781 129.394C9.38047 129.307 9.57969 129.211 9.75312 129.108V130.126C9.7168 130.283 9.4625 130.54 8.85312 130.775C8.11484 131.06 7.07422 131.224 5.99727 131.224C4.92383 131.224 3.88672 131.06 3.15312 130.775C2.53086 130.534 2.25195 130.253 2.25195 130.082V129.11H2.25078ZM9.56797 132.544C9.39922 132.693 9.13555 132.837 8.80508 132.961C8.06328 133.239 7.06719 133.391 6.00195 133.391C4.93672 133.391 3.94062 133.239 3.19883 132.961C2.86836 132.838 2.60469 132.694 2.43594 132.544C2.3668 132.483 2.25078 132.363 2.25078 132.252V131.276C2.42422 131.379 2.62344 131.475 2.84609 131.562C3.68633 131.889 4.80547 132.068 5.99609 132.068C7.19023 132.068 8.31289 131.889 9.15664 131.563C9.38984 131.473 9.58672 131.377 9.75312 131.279V132.253C9.75312 132.363 9.63711 132.483 9.56797 132.544Z" fill="white" fill-opacity="0.5"/>
<path d="M8.56641 127.978C8.56641 128.18 8.73011 128.344 8.93204 128.344C9.13396 128.344 9.29767 128.18 9.29767 127.978C9.29767 127.776 9.13396 127.613 8.93204 127.613C8.73011 127.613 8.56641 127.776 8.56641 127.978ZM8.57109 130.107C8.57109 130.309 8.7348 130.473 8.93672 130.473C9.13865 130.473 9.30235 130.309 9.30235 130.107C9.30235 129.906 9.13865 129.742 8.93672 129.742C8.7348 129.742 8.57109 129.906 8.57109 130.107ZM8.57109 132.304C8.57109 132.505 8.7348 132.669 8.93672 132.669C9.13865 132.669 9.30235 132.505 9.30235 132.304C9.30235 132.102 9.13865 131.938 8.93672 131.938C8.7348 131.938 8.57109 132.102 8.57109 132.304Z" fill="white" fill-opacity="0.5"/>
</svg>
