<svg width="127" height="60" viewBox="0 0 127 60" fill="none" xmlns="http://www.w3.org/2000/svg">
<circle cx="30" cy="30" r="29.5" stroke="white"/>
<path d="M37.5205 30.5448L31.2428 37.0482C30.9591 37.3422 30.9591 37.8189 31.2428 38.1128C31.5266 38.4068 31.9867 38.4068 32.2705 38.1128L39.7872 30.3258C40.0709 30.0318 40.071 29.5552 39.7872 29.2612L32.0859 21.2205C31.8021 20.9265 31.342 20.9265 31.0582 21.2205C30.7745 21.5145 30.7745 21.9911 31.0582 22.2851L37.5176 29.0392L20.7267 29.04C20.3253 29.04 20 29.377 20 29.7928C20 30.2085 20.3253 30.5456 20.7267 30.5456L37.5204 30.5448L37.5205 30.5448Z" fill="white"/>
<circle cx="97" cy="30" r="29.5" fill="white" stroke="white"/>
<path d="M102.939 24.9698L103.098 34.0073C103.106 34.4159 103.443 34.7529 103.851 34.7601C104.26 34.7674 104.585 34.442 104.578 34.0335L104.387 23.2121C104.379 22.8036 104.042 22.4665 103.634 22.4593L92.5026 22.2193C92.0941 22.2121 91.7688 22.5374 91.776 22.946C91.7832 23.3545 92.1202 23.6916 92.5288 23.6988L101.872 23.9072L89.9997 35.7807C89.7159 36.0645 89.7242 36.5329 90.0182 36.8269C90.3122 37.1208 90.7805 37.1291 91.0643 36.8453L102.939 24.9698L102.939 24.9698Z" fill="#18A0FB"/>
</svg>
