<svg width="24" height="186" viewBox="0 0 24 186" fill="none" xmlns="http://www.w3.org/2000/svg">
<path d="M14.374 115.663C15.0351 115.779 15.7149 115.779 16.376 115.663C17.4387 115.475 18.2947 114.762 18.5895 113.818L18.652 113.617C18.717 113.409 18.75 113.194 18.75 112.978C18.75 112.023 17.8967 111.25 16.8442 111.25H13.9058C12.8533 111.25 12 112.023 12 112.978C12 113.194 12.033 113.409 12.098 113.617L12.1605 113.818C12.4553 114.762 13.3113 115.475 14.374 115.663ZM14.374 115.663C9.78146 114.812 6.18831 111.219 5.33738 106.626M5.33738 106.626C5.22087 105.965 5.22087 105.285 5.33738 104.624C5.52463 103.561 6.23808 102.705 7.18231 102.411L7.38259 102.348C7.59077 102.283 7.80609 102.25 8.02246 102.25C8.97656 102.25 9.75001 103.103 9.75 104.156L9.75 107.094C9.75 108.147 8.97655 109 8.02245 109C7.80609 109 7.59077 108.967 7.38259 108.902L7.18231 108.839C6.23808 108.545 5.52463 107.689 5.33738 106.626Z" stroke="#363853"/>
<path d="M12 179.5L12 168.5M12 168.5L8 173.088M12 168.5L16 173.088" stroke="#363853" stroke-width="1.5" stroke-linecap="round" stroke-linejoin="round"/>
<path fill-rule="evenodd" clip-rule="evenodd" d="M4.14746 8.99968C4.14746 4.66292 7.6631 1.14728 11.9999 1.14728C16.3366 1.14728 19.8523 4.66292 19.8523 8.99968C19.8523 13.3364 16.3366 16.8521 11.9999 16.8521C7.6631 16.8521 4.14746 13.3364 4.14746 8.99968ZM11.9999 2.09728C8.18777 2.09728 5.09746 5.18759 5.09746 8.99968C5.09746 12.8117 8.18778 15.9021 11.9999 15.9021C15.8119 15.9021 18.9023 12.8117 18.9023 8.99968C18.9023 5.18759 15.8119 2.09728 11.9999 2.09728ZM12.8999 12.6C12.8999 13.0971 12.4969 13.5 11.9999 13.5C11.5028 13.5 11.0999 13.0971 11.0999 12.6C11.0999 12.103 11.5028 11.7 11.9999 11.7C12.4969 11.7 12.8999 12.103 12.8999 12.6ZM10.15 7.50001C10.15 6.62212 10.9051 5.80001 12 5.80001C13.0949 5.80001 13.85 6.62212 13.85 7.50001C13.85 8.15069 13.48 8.48038 12.9145 8.82395C12.848 8.86434 12.7731 8.90781 12.6942 8.95364L12.6942 8.95365C12.4759 9.08044 12.2265 9.22527 12.037 9.37297C11.7571 9.59102 11.45 9.92824 11.45 10.44C11.45 10.7438 11.6963 10.99 12 10.99C12.3038 10.99 12.55 10.7438 12.55 10.44L12.55 10.4385C12.5497 10.423 12.5488 10.3686 12.7131 10.2407C12.8407 10.1412 12.9858 10.0571 13.1715 9.94942L13.1715 9.9494C13.2649 9.89524 13.3686 9.83512 13.4856 9.76407C14.12 9.37864 14.95 8.76333 14.95 7.50001C14.95 5.9779 13.6651 4.70001 12 4.70001C10.3349 4.70001 9.05001 5.9779 9.05001 7.50001C9.05001 7.80376 9.29626 8.05001 9.60001 8.05001C9.90377 8.05001 10.15 7.80376 10.15 7.50001Z" fill="#363853"/>
<path fill-rule="evenodd" clip-rule="evenodd" d="M17.6464 51.4464C17.8417 51.2512 18.1583 51.2512 18.3535 51.4464L20.7535 53.8464C20.8473 53.9402 20.9 54.0674 20.9 54.2C20.9 54.3326 20.8473 54.4598 20.7535 54.5535L16.0109 59.2962C15.9349 59.3722 15.8471 59.4354 15.751 59.4835L11.0236 61.8472C10.8311 61.9434 10.5986 61.9057 10.4464 61.7535C10.2942 61.6014 10.2565 61.3689 10.3528 61.1764L12.7165 56.449C12.7645 56.3528 12.8278 56.2651 12.9038 56.1891L17.6464 51.4464ZM18 52.5071L13.6109 56.8962L12.3727 59.3727L12.8273 59.8273L15.3038 58.5891L19.6929 54.2L18 52.5071ZM14.9 52.5L13.9 53.5H8.4C7.97171 53.5 7.68056 53.5004 7.45552 53.5188C7.23631 53.5367 7.12421 53.5691 7.04601 53.609C6.85785 53.7049 6.70487 53.8578 6.60899 54.046C6.56915 54.1242 6.53669 54.2363 6.51878 54.4555C6.50039 54.6805 6.5 54.9717 6.5 55.4V63.8C6.5 64.2283 6.50039 64.5194 6.51878 64.7445C6.53669 64.9637 6.56915 65.0758 6.60899 65.154C6.70487 65.3421 6.85785 65.4951 7.04601 65.591C7.12421 65.6308 7.23631 65.6633 7.45552 65.6812C7.68056 65.6996 7.97171 65.7 8.4 65.7H16.8C17.2283 65.7 17.5194 65.6996 17.7445 65.6812C17.9637 65.6633 18.0758 65.6308 18.154 65.591C18.3422 65.4951 18.4951 65.3421 18.591 65.154C18.6309 65.0758 18.6633 64.9637 18.6812 64.7445C18.6996 64.5194 18.7 64.2283 18.7 63.8V58.3L19.7 57.3V63.8V63.8206C19.7 64.2231 19.7 64.5553 19.6779 64.8259C19.6549 65.1069 19.6057 65.3653 19.482 65.608C19.2903 65.9843 18.9843 66.2903 18.608 66.482C18.3653 66.6056 18.107 66.6549 17.8259 66.6779C17.5553 66.7 17.2231 66.7 16.8207 66.7H16.8H8.4H8.37934C7.97686 66.7 7.64468 66.7 7.37409 66.6779C7.09304 66.6549 6.83469 66.6056 6.59202 66.482C6.2157 66.2903 5.90973 65.9843 5.71799 65.608C5.59434 65.3653 5.54506 65.1069 5.5221 64.8259C5.49999 64.5553 5.49999 64.2231 5.5 63.8206L5.5 63.8V55.4L5.5 55.3793C5.49999 54.9769 5.49999 54.6447 5.5221 54.3741C5.54506 54.093 5.59434 53.8347 5.71799 53.592C5.90973 53.2157 6.2157 52.9097 6.59202 52.718C6.83469 52.5943 7.09304 52.545 7.37409 52.5221C7.64469 52.5 7.97687 52.5 8.37935 52.5L8.4 52.5H14.9Z" fill="#363853"/>
</svg>
